<mxfile host="app.diagrams.net" modified="2022-09-16T01:34:38.615Z" agent="5.0 (Windows)" etag="d46v-nd4jMTUdhJYRDP0" version="20.3.0" type="github">
  <diagram id="TYeDfcO-ebLdJnFHrg0i" name="Page-1">
    <mxGraphModel dx="512" dy="1657" grid="1" gridSize="10" guides="1" tooltips="1" connect="1" arrows="1" fold="1" page="1" pageScale="1" pageWidth="850" pageHeight="1100" math="0" shadow="0">
      <root>
        <mxCell id="0" />
        <mxCell id="1" parent="0" />
        <mxCell id="IJcC9iv3ISZE87UZAg1H-1" value="&lt;div&gt;Start&lt;/div&gt;" style="ellipse;whiteSpace=wrap;html=1;" vertex="1" parent="1">
          <mxGeometry x="200" y="100" width="120" height="80" as="geometry" />
        </mxCell>
        <mxCell id="IJcC9iv3ISZE87UZAg1H-2" value="&lt;h1&gt;Exercise 03&lt;br&gt;&lt;/h1&gt;&lt;p&gt;Write an algorithm, a pseudocode and draw a flowchart that determines if the employee has to be paid overtime(OT). They will be paid an OT if they exceed 40 hours work in a week , regular pay (RP) if less that or equal to 40 hours only. Display &quot;OT Pay&quot; or &quot;RP Pay&quot; based on this condition.&lt;br&gt;&lt;/p&gt;" style="text;html=1;strokeColor=none;fillColor=none;spacing=5;spacingTop=-20;whiteSpace=wrap;overflow=hidden;rounded=0;" vertex="1" parent="1">
          <mxGeometry x="10" y="-60" width="190" height="120" as="geometry" />
        </mxCell>
        <mxCell id="IJcC9iv3ISZE87UZAg1H-4" value="" style="shape=hexagon;perimeter=hexagonPerimeter2;whiteSpace=wrap;html=1;fixedSize=1;" vertex="1" parent="1">
          <mxGeometry x="200" y="201" width="120" height="79" as="geometry" />
        </mxCell>
      </root>
    </mxGraphModel>
  </diagram>
</mxfile>
